Coordinates
version=1
nRows=7
nColumns=63
inDegrees=yes

Units are S.I. units (second, meters, Newtons, ...)
If the header above contains a line with 'inDegrees', this indicates whether rotational values are in degrees (yes) or radians (no).

endheader
time	pelvis_tilt	pelvis_list	pelvis_rotation	pelvis_tx	pelvis_ty	pelvis_tz	hip_flexion_r	hip_adduction_r	hip_rotation_r	knee_angle_r	knee_angle_r_beta	ankle_angle_r	subtalar_angle_r	mtp_angle_r	hip_flexion_l	hip_adduction_l	hip_rotation_l	knee_angle_l	knee_angle_l_beta	ankle_angle_l	subtalar_angle_l	mtp_angle_l	L5_S1_Flex_Ext	L5_S1_Lat_Bending	L5_S1_axial_rotation	L4_L5_Flex_Ext	L4_L5_Lat_Bending	L4_L5_axial_rotation	L3_L4_Flex_Ext	L3_L4_Lat_Bending	L3_L4_axial_rotation	L2_L3_Flex_Ext	L2_L3_Lat_Bending	L2_L3_axial_rotation	L1_L2_Flex_Ext	L1_L2_Lat_Bending	L1_L2_axial_rotation	L1_T12_Flex_Ext	L1_T12_Lat_Bending	L1_T12_axial_rotation	Abs_r3	Abs_r2	Abs_r1	Abs_t1	Abs_t2	neck_flexion	neck_bending	neck_rotation	arm_flex_r	arm_add_r	arm_rot_r	elbow_flex_r	pro_sup_r	wrist_flex_r	wrist_dev_r	arm_flex_l	arm_add_l	arm_rot_l	elbow_flex_l	pro_sup_l	wrist_flex_l	wrist_dev_l
      7.50000000	    -40.17106725	      1.07102542	     -0.90750763	     -0.14368597	      1.01054802	      0.03739022	     97.32940407	     -3.11065728	      5.13614506	    105.75206222	      1.84572168	     -3.88407286	    -15.54316317	      0.00000000	     92.27635019	     -4.12587782	      0.66821813	     59.15566948	      1.03246120	     -0.65733436	    -15.65969200	      0.00000000	     -0.05238681	      0.05424730	      0.03606181	     -0.09728754	      0.07214891	      0.03831568	     -0.08606629	      0.13189689	      0.03831568	     -0.05987289	      0.13189689	      0.03155409	     -0.04864639	      0.11062110	      0.02930022	     -0.02993382	      0.08402907	      0.02704636	     -0.37419374	      0.61365635	      0.20056499	      0.00000000	      0.00000000	      0.00000000	      0.00000000	      0.00000000	     68.48561582	    -12.87331922	     33.53269857	     41.31042739	     52.05216673	      0.00000000	      5.00000014	     65.23466716	    -16.31306790	     30.15489172	     42.06843730	     64.26523208	      0.00000000	      5.00000014
      7.50800000	    -40.05583030	      0.78313534	     -0.81771817	     -0.14323300	      1.00996183	      0.03651634	     98.97111178	     -3.41037301	      4.98936108	    108.35564540	      1.89116278	     -1.84203646	    -15.26566507	      0.00000000	     90.00878561	     -4.05738920	      0.47615311	     56.34836536	      0.98346450	     -1.35575113	    -16.01840444	      0.00000000	     -0.05508737	      0.10918548	      0.00775285	     -0.10230275	      0.14521669	      0.00823741	     -0.09050304	      0.26547357	      0.00823741	     -0.06295935	      0.26547357	      0.00678375	     -0.05115413	      0.22265103	      0.00629919	     -0.03147692	      0.16912831	      0.00581464	     -0.39348356	      1.23512797	      0.04311905	      0.00000000	      0.00000000	      0.00000000	      0.00000000	      0.00000000	     68.66432009	    -13.14517906	     34.52409376	     41.55337172	     52.18427881	      0.00000000	      5.00000014	     64.91906645	    -16.10130965	     29.30336890	     41.76743239	     64.17710441	      0.00000000	      5.00000014
      7.51700000	    -40.00292629	      0.12013432	     -1.06513377	     -0.14285717	      1.00944110	      0.03586603	    100.57931166	     -3.33346260	      4.54775890	    110.59105181	      1.93017798	      0.48594817	    -13.98513663	      0.00000000	     88.03278872	     -4.36250735	      0.72050512	     53.97537147	      0.94204795	     -2.52894121	    -16.44282281	      0.00000000	     -0.05339708	      0.22017293	      0.03593833	     -0.09916371	      0.29283000	      0.03818448	     -0.08772606	      0.53532847	      0.03818448	     -0.06102752	      0.53532847	      0.03144604	     -0.04958452	      0.44897665	      0.02919989	     -0.03051109	      0.34104787	      0.02695375	     -0.38140997	      2.49064026	      0.19987822	      0.00000000	      0.00000000	      0.00000000	      0.00000000	      0.00000000	     69.11694974	    -13.46352368	     35.99788217	     41.58068494	     52.40180833	      0.00000000	      5.00000014	     64.35139185	    -15.84149770	     27.98335272	     41.77081141	     64.09824006	      0.00000000	      5.00000014
      7.52500000	    -39.98078651	     -0.50528636	     -1.48671770	     -0.14251967	      1.00897705	      0.03588857	    102.30804726	     -2.99717783	      3.97664968	    112.53807208	      1.96415989	      1.57814149	    -13.91179575	      0.00000000	     86.12987891	     -4.96513007	      0.90505185	     51.84871313	      0.90493076	     -3.06004144	    -15.87729769	      0.00000000	     -0.05100051	      0.32193931	      0.10407723	     -0.09471304	      0.42817928	      0.11058205	     -0.08378873	      0.78276323	      0.11058205	     -0.05828848	      0.78276323	      0.09106757	     -0.04735907	      0.65649864	      0.08456275	     -0.02914169	      0.49868399	      0.07805792	     -0.36429153	      3.64184184	      0.57884632	      0.00000000	      0.00000000	      0.00000000	      0.00000000	      0.00000000	     69.24483556	    -13.56202543	     36.16974764	     41.71392884	     52.40185441	      0.00000000	      5.00000014	     64.07246412	    -15.80155900	     27.88923249	     41.70520783	     64.02035892	      0.00000000	      5.00000014
      7.53300000	    -39.94206567	     -1.13194955	     -1.75077990	     -0.14211451	      1.00863558	      0.03584339	    103.95476748	     -2.88650439	      3.27402264	    114.22780107	      1.99365123	      3.01581394	    -13.90029502	      0.00000000	     84.24197286	     -5.45439795	      0.94647625	     49.86258789	      0.87026633	     -3.60676571	    -15.73163594	      0.00000000	     -0.05281870	      0.42126616	      0.13787951	     -0.09808961	      0.56028400	      0.14649698	     -0.08677585	      1.02426655	      0.14649698	     -0.06036649	      1.02426655	      0.12064457	     -0.04904745	      0.85904596	      0.11202710	     -0.03018061	      0.65254129	      0.10340963	     -0.37727871	      4.76544708	      0.76684449	      0.00000000	      0.00000000	      0.00000000	      0.00000000	      0.00000000	     69.41583012	    -13.66361801	     36.60865287	     41.82935272	     52.45057752	      0.00000000	      5.00000014	     63.81644983	    -15.74350375	     27.61146231	     41.58612536	     63.96503909	      0.00000000	      5.00000014
      7.54200000	    -39.91958993	     -2.08217728	     -1.85127138	     -0.14173251	      1.00827336	      0.03510977	    105.42412939	     -3.07035179	      2.49761125	    115.69505789	      2.01925969	      6.11306919	    -11.74219909	      0.00000000	     82.66923394	     -5.79390653	      1.33725061	     48.36323111	      0.84409762	     -4.71256024	    -16.35757123	      0.00000000	     -0.05345093	      0.57037761	      0.12596096	     -0.09926371	      0.75860223	      0.13383352	     -0.08781453	      1.38681613	      0.13383352	     -0.06108906	      1.38681613	      0.11021584	     -0.04963453	      1.16311403	      0.10234328	     -0.03054186	      0.88351493	      0.09447072	     -0.38179461	      6.45222565	      0.70055710	      0.00000000	      0.00000000	      0.00000000	      0.00000000	      0.00000000	     70.34702772	    -14.10815073	     39.49840832	     41.63260101	     52.86354707	      0.00000000	      5.00000014	     63.02519381	    -15.28260509	     25.31389549	     41.67940210	     63.78931745	      0.00000000	      5.00000014
      7.55000000	    -39.94176382	     -2.65332313	     -2.14039141	     -0.14144826	      1.00812728	      0.03534278	    107.11777388	     -2.89545074	      1.83894435	    116.81343752	      2.03877910	      7.01317348	    -11.79118132	      0.00000000	     81.11104657	     -6.38519405	      1.28788651	     46.99686570	      0.82025004	     -5.23501677	    -15.95890935	      0.00000000	     -0.05218769	      0.65823224	      0.16959419	     -0.09691776	      0.87544888	      0.18019383	     -0.08573916	      1.60042588	      0.18019383	     -0.05964531	      1.60042588	      0.14839492	     -0.04846149	      1.34226719	      0.13779528	     -0.02982005	      1.01960175	      0.12719564	     -0.37277147	      7.44605479	      0.94323201	      0.00000000	      0.00000000	      0.00000000	      0.00000000	      0.00000000	     70.48386109	    -14.12943452	     39.62603497	     41.63698179	     52.87129608	      0.00000000	      5.00000014	     62.81553971	    -15.23781685	     25.23188847	     41.63838993	     63.75344885	      0.00000000	      5.00000014
